<svg width="19" height="20" viewBox="0 0 19 20" fill="none" xmlns="http://www.w3.org/2000/svg">
<path d="M17.7275 8.20003H15.6375V6.10003C15.6375 5.63987 15.2768 5.26019 14.8397 5.26019H7.9233C7.65761 5.26019 7.41046 5.12035 7.2583 4.90003L6.32761 3.43987C6.17546 3.21955 5.9283 3.07971 5.68191 3.07971H1.27334C0.83619 3.07971 0.475494 3.45939 0.475494 3.91955V16.0991C0.475494 16.5593 0.83619 16.939 1.27334 16.939H15.1055C15.4284 16.939 15.7134 16.739 15.8462 16.4187L18.4684 9.35847C18.6777 8.79987 18.2977 8.19987 17.7277 8.19987L17.7275 8.20003ZM5.49115 4.30003L6.3083 5.57971C6.669 6.13987 7.27761 6.47971 7.94261 6.47971H14.4976V8.20003H4.25623C3.93338 8.20003 3.64838 8.40003 3.51553 8.72035L1.63484 13.7999V4.29995L5.49115 4.30003ZM14.8583 15.7H2.18553L4.52272 9.42043H17.1955L14.8583 15.7Z" fill="black"/>
</svg>
