<svg width="33" height="34" viewBox="0 0 33 34" fill="none" xmlns="http://www.w3.org/2000/svg">
<path d="M19.0425 15.1644C19.0425 15.2906 19.0322 15.4207 19.0116 15.5416C18.8388 16.8047 17.7856 17.7808 16.5082 17.7861H16.503V17.7808C16.503 17.7808 16.4927 17.7808 16.4979 17.7861H16.4927C15.2152 17.7808 14.1569 16.806 13.9842 15.5376C13.9636 15.4167 13.9533 15.2906 13.9533 15.1657C13.9533 14.7301 14.0551 14.321 14.2382 13.9651C14.2485 13.9492 14.2588 13.9332 14.2639 13.9173C14.3 13.8655 14.3297 13.8071 14.3606 13.7446C14.3606 13.7446 14.3658 13.7446 14.3658 13.7393C14.8182 13.0208 15.602 12.544 16.4979 12.544C17.4093 12.544 18.2123 13.0421 18.6558 13.7871C18.6919 13.8442 18.7215 13.9027 18.7525 13.9545C18.9407 14.3157 19.0425 14.7301 19.0425 15.1644V15.1644Z" stroke="black" stroke-miterlimit="10" stroke-linecap="round" stroke-linejoin="round"/>
<path d="M16.5034 17.7811V17.7865H16.4971C16.4908 17.7811 16.5034 17.7811 16.5034 17.7811Z" stroke="black" stroke-miterlimit="10" stroke-linecap="round" stroke-linejoin="round"/>
<path d="M21.5876 23.0299V24.0778H11.4116V23.0299C11.4116 22.48 11.4928 21.9555 11.6462 21.4574C12.292 19.3337 14.2205 17.7878 16.4956 17.7878H16.5111C17.911 17.7931 19.1768 18.3748 20.0985 19.3244C20.6683 19.9114 21.1066 20.6406 21.3554 21.4587C21.5062 21.9541 21.5874 22.4787 21.5874 23.0299H21.5876Z" stroke="black" stroke-miterlimit="10" stroke-linecap="round" stroke-linejoin="round"/>
<path d="M16.4938 17.7863C14.2186 17.7863 12.29 19.3322 11.6444 21.4559H7.01409V20.408C7.01409 17.514 9.288 15.1661 12.1019 15.1661C12.7683 15.1661 13.4051 15.2976 13.9852 15.538" stroke="black" stroke-miterlimit="10" stroke-linecap="round" stroke-linejoin="round"/>
<path d="M16.5034 17.7811V17.7865H16.4971C16.4908 17.7811 16.5034 17.7811 16.5034 17.7811Z" stroke="black" stroke-miterlimit="10" stroke-linecap="round" stroke-linejoin="round"/>
<path d="M14.6453 12.5443C14.6453 12.9746 14.5435 13.3837 14.3656 13.7396C14.3656 13.7449 14.3605 13.7449 14.3605 13.7449C14.3347 13.8074 14.305 13.8658 14.2638 13.9176C14.2586 13.9335 14.2483 13.9495 14.238 13.9654C13.7855 14.6892 12.9966 15.166 12.1008 15.166C10.6918 15.166 9.55613 13.992 9.55613 12.5443C9.55613 11.098 10.6905 9.92255 12.1008 9.92255C13.5058 9.92255 14.6454 11.0966 14.6454 12.5443L14.6453 12.5443Z" stroke="black" stroke-miterlimit="10" stroke-linecap="round" stroke-linejoin="round"/>
<path d="M16.5002 17.7863C16.4939 17.7809 16.5066 17.7809 16.5066 17.7809V17.7863H16.5002Z" stroke="black" stroke-miterlimit="10" stroke-linecap="round" stroke-linejoin="round"/>
<path d="M19.0107 15.5431C19.596 15.296 20.2315 15.1659 20.8979 15.1659C22.3017 15.1659 23.574 15.7529 24.4957 16.7025C25.4174 17.6495 25.9871 18.9603 25.9871 20.408V21.4559H21.3514C21.1027 20.6378 20.6644 19.91 20.0946 19.3216C19.1729 18.3733 17.9071 17.7903 16.5071 17.785" stroke="black" stroke-miterlimit="10" stroke-linecap="round" stroke-linejoin="round"/>
<path d="M23.4448 12.5443C23.4448 13.9906 22.3053 15.1661 20.9002 15.1661C19.9991 15.1661 19.2064 14.6839 18.7526 13.9548C18.7217 13.903 18.692 13.8446 18.656 13.7875C18.4677 13.4209 18.3556 12.9959 18.3556 12.5443C18.3556 11.098 19.4951 9.92261 20.9002 9.92261C22.3053 9.92261 23.4449 11.0967 23.4449 12.5443L23.4448 12.5443Z" stroke="black" stroke-miterlimit="10" stroke-linecap="round" stroke-linejoin="round"/>
</svg>
