<svg width="29" height="30" viewBox="0 0 29 30" fill="none" xmlns="http://www.w3.org/2000/svg">
<path d="M5.75322 14.5968L10.9358 17.278V17.2769C11.4728 17.5335 12.0596 17.6612 12.652 17.6507C13.2468 17.6612 13.8369 17.5323 14.3773 17.2745L23.2484 12.6854C23.8499 12.3737 24.1966 11.8886 24.1966 11.353C24.1966 10.8187 23.8511 10.3323 23.2484 10.0206L18.0748 7.34402V7.34519C16.976 6.84245 15.7231 6.84245 14.6244 7.34519L5.75328 11.9331L5.74762 11.9366C5.14723 12.2472 4.80286 12.73 4.80286 13.2643C4.80286 13.7987 5.14723 14.2827 5.75327 14.5968L5.75322 14.5968ZM6.32076 13.1074L15.193 8.51825C15.9339 8.20067 16.7665 8.20067 17.5074 8.51825L22.681 11.1948C22.8226 11.2675 22.8883 11.3308 22.9166 11.3425C22.8486 11.414 22.7693 11.4714 22.681 11.5124L13.8032 16.1039C13.0657 16.4215 12.2354 16.4203 11.4979 16.1004L6.31533 13.4191C6.17939 13.3488 6.11369 13.2879 6.08537 13.275V13.2762C6.15334 13.207 6.23377 13.1496 6.321 13.1074L6.32076 13.1074Z" fill="white"/>
<path d="M23.165 14.1528L14.6361 18.5826C13.4081 19.2166 11.9638 19.2131 10.7391 18.5721L5.83633 15.9904C5.52481 15.8263 5.14192 15.9552 4.98332 16.2775C4.82473 16.6009 4.94934 16.9959 5.26199 17.1599L10.1647 19.7416C11.7473 20.5713 13.6163 20.5759 15.2046 19.7568L23.7347 15.327C23.8854 15.2485 23.9998 15.1114 24.053 14.9462C24.1063 14.7809 24.0938 14.6005 24.0179 14.4446C23.942 14.2887 23.8106 14.1704 23.6498 14.1153C23.49 14.0614 23.3156 14.0743 23.1649 14.1528L23.165 14.1528Z" fill="white"/>
<path d="M23.1651 16.9617L15.1596 21.1194C13.6031 21.9257 11.7692 21.9198 10.2171 21.1065L5.83755 18.8003H5.83642C5.5249 18.635 5.14202 18.7639 4.98342 19.0874C4.82481 19.4108 4.94943 19.8057 5.26209 19.9698L9.64167 22.2761C11.5539 23.2768 13.8116 23.2839 15.7293 22.2936L23.7348 18.1359V18.1348C23.8855 18.0574 23.9999 17.9203 24.0531 17.7551C24.1064 17.5898 24.0939 17.4094 24.018 17.2535C23.9421 17.0977 23.8107 16.9793 23.6499 16.9242C23.4901 16.8691 23.3157 16.8832 23.165 16.9617L23.1651 16.9617Z" fill="white"/>
<path d="M12.4154 13.8282C13.0679 14.1388 13.7804 14.2934 14.4986 14.2805C15.2179 14.2934 15.9305 14.1387 16.583 13.8282H16.5841C17.5368 13.3349 17.6795 12.6645 17.6795 12.3095C17.6795 11.9555 17.5368 11.2852 16.583 10.7919C15.4139 10.1872 13.5832 10.1884 12.4142 10.7919C11.4615 11.2852 11.3188 11.9555 11.3188 12.3095C11.3188 12.6645 11.4616 13.3349 12.4154 13.8282H12.4154ZM12.9818 11.9649C13.4587 11.7435 13.9775 11.6345 14.4997 11.6462C15.022 11.6345 15.5396 11.7435 16.0154 11.9649C16.3417 12.1349 16.4097 12.286 16.4097 12.3095C16.4097 12.3329 16.3417 12.4852 16.0154 12.6551L16.0166 12.654C15.0469 13.0794 13.9526 13.0794 12.9829 12.654C12.6566 12.4841 12.5887 12.3329 12.5887 12.3083C12.5887 12.286 12.6566 12.1337 12.9818 11.9649L12.9818 11.9649Z" fill="white"/>
</svg>
