<svg width="100" height="100" viewBox="0 0 100 100" fill="none" xmlns="http://www.w3.org/2000/svg">
<path d="M61.5003 45C61.5042 40.9688 59.3948 37.2344 55.9456 35.1484C52.4964 33.0664 48.2073 32.9414 44.6406 34.8163C41.0742 36.6952 38.7539 40.3046 38.5195 44.328C38.2851 48.3514 40.1757 52.203 43.5 54.48V57.48C43.5 58.398 43.8203 59.2886 44.3984 59.9995C43.1953 61.4487 43.1953 63.5503 44.3984 64.9995C43.8242 65.7066 43.5078 66.5893 43.5 67.4995C43.5 68.562 43.9219 69.5776 44.6719 70.3276C45.4219 71.0776 46.4375 71.4995 47.5 71.4995H52.5C53.5625 71.4995 54.5781 71.0776 55.3281 70.3276C56.0781 69.5776 56.5 68.562 56.5 67.4995C56.4922 66.5894 56.1758 65.7065 55.6016 64.9995C56.8047 63.5503 56.8047 61.4487 55.6016 59.9995C56.1758 59.2964 56.4922 58.4175 56.5 57.5112V54.5112C59.6289 52.355 61.5 48.8003 61.5 44.9995L61.5003 45ZM53.5003 62.5C53.5003 62.7656 53.3948 63.0195 53.2073 63.207C53.0198 63.3945 52.7659 63.5 52.5003 63.5H47.5003C46.9495 63.5 46.5003 63.0507 46.5003 62.5C46.5003 61.9492 46.9495 61.5 47.5003 61.5H52.5003C52.7659 61.5 53.0198 61.6054 53.2073 61.7929C53.3948 61.9804 53.5003 62.2343 53.5003 62.5ZM52.5003 68.5H47.5003C46.9495 68.5 46.5003 68.0507 46.5003 67.5C46.5003 66.9492 46.9495 66.5 47.5003 66.5H52.5003C53.0511 66.5 53.5003 66.9492 53.5003 67.5C53.5003 68.0507 53.0511 68.5 52.5003 68.5ZM54.2503 52.352C53.7855 52.6176 53.5003 53.1137 53.5003 53.6489V57.5122C53.5003 57.7739 53.3948 58.0317 53.2073 58.2192C53.0198 58.4067 52.7659 58.5122 52.5003 58.5122H47.5003C46.9495 58.5122 46.5003 58.0629 46.5003 57.5122V53.6489C46.5003 53.1137 46.2151 52.6177 45.7503 52.352C42.4183 50.4262 40.7933 46.5043 41.7894 42.7895C42.7855 39.0747 46.1527 36.4887 50.0003 36.4887C53.8479 36.4887 57.2151 39.0746 58.2112 42.7895C59.2073 46.5043 57.5823 50.4262 54.2503 52.352Z" fill="white"/>
<path d="M50 31.5C50.8281 31.5 51.5 30.8281 51.5 30V25C51.5 24.1719 50.8281 23.5 50 23.5C49.1719 23.5 48.5 24.1719 48.5 25V30C48.5 30.8281 49.1719 31.5 50 31.5Z" fill="white"/>
<path d="M60.0003 36.4999C60.3988 36.4999 60.7777 36.3398 61.0589 36.0585L66.0589 31.0585C66.6097 30.4687 66.5941 29.5468 66.0238 28.9765C65.4535 28.4062 64.5316 28.3906 63.9418 28.9414L58.9418 33.9414C58.5121 34.3672 58.3832 35.0156 58.6175 35.5742C58.848 36.1328 59.3949 36.5 60.0003 36.5L60.0003 36.4999Z" fill="white"/>
<path d="M70 43.5H65C64.1719 43.5 63.5 44.1719 63.5 45C63.5 45.8281 64.1719 46.5 65 46.5H70C70.8281 46.5 71.5 45.8281 71.5 45C71.5 44.1719 70.8281 43.5 70 43.5Z" fill="white"/>
<path d="M38.9402 36.059C39.53 36.6098 40.4519 36.5942 41.0222 36.0239C41.5925 35.4536 41.6081 34.5317 41.0573 33.9419L36.0573 28.9419C35.4675 28.3911 34.5456 28.4067 33.9753 28.977C33.405 29.5473 33.3894 30.4692 33.9402 31.059L38.9402 36.059Z" fill="white"/>
<path d="M36.5 45C36.5 44.1719 35.8281 43.5 35 43.5H30C29.1719 43.5 28.5 44.1719 28.5 45C28.5 45.8281 29.1719 46.5 30 46.5H35C35.8281 46.5 36.5 45.8281 36.5 45Z" fill="white"/>
<path d="M61.0593 53.941C60.4694 53.3902 59.5476 53.4059 58.9773 53.9762C58.407 54.5465 58.3913 55.4684 58.9421 56.0582L63.9421 61.0582C64.5319 61.6089 65.4538 61.5933 66.0241 61.023C66.5944 60.4527 66.61 59.5308 66.0593 58.941L61.0593 53.941Z" fill="white"/>
<path d="M38.9415 53.941L33.9415 58.941C33.6407 59.2184 33.4688 59.6051 33.461 60.0113C33.4571 60.4176 33.6133 60.8082 33.9024 61.0972C34.1915 61.3863 34.5821 61.5425 34.9883 61.5386C35.3946 61.5308 35.7813 61.3589 36.0586 61.0582L41.0586 56.0582C41.6094 55.4683 41.5938 54.5465 41.0235 53.9762C40.4532 53.4059 39.5313 53.3902 38.9415 53.941L38.9415 53.941Z" fill="white"/>
</svg>
