<svg width="597" height="122" viewBox="0 0 597 122" fill="none" xmlns="http://www.w3.org/2000/svg">
<path d="M162.753 121.687C156.804 121.687 151.272 120.643 146.158 118.556C141.148 116.364 136.817 113.442 133.164 109.789C129.511 106.136 126.641 101.857 124.554 96.9513C122.571 91.9416 121.579 86.6188 121.579 80.9829C121.579 75.347 122.571 70.0763 124.554 65.171C126.641 60.1613 129.511 55.83 133.164 52.1771C136.817 48.5242 141.148 45.654 146.158 43.5667C151.272 41.3749 156.804 40.279 162.753 40.279C168.597 40.279 174.024 41.3749 179.034 43.5667C184.044 45.654 188.375 48.5242 192.028 52.1771C195.785 55.83 198.708 60.1613 200.795 65.171C202.882 70.0763 203.926 75.347 203.926 80.9829C203.926 86.6188 202.882 91.9416 200.795 96.9513C198.812 101.857 195.994 106.136 192.341 109.789C188.688 113.442 184.305 116.364 179.191 118.556C174.181 120.643 168.702 121.687 162.753 121.687ZM162.753 96.9513C167.136 96.9513 170.737 95.438 173.555 92.4113C176.477 89.3846 177.938 85.5751 177.938 80.9829C177.938 76.3907 176.477 72.5812 173.555 69.5545C170.737 66.4234 167.136 64.8579 162.753 64.8579C158.369 64.8579 154.768 66.4234 151.95 69.5545C149.132 72.5812 147.723 76.3907 147.723 80.9829C147.723 85.5751 149.132 89.3846 151.95 92.4113C154.768 95.438 158.369 96.9513 162.753 96.9513Z" fill="white"/>
<path d="M243.88 121.687C239.392 121.687 235.06 120.8 230.886 119.025C226.711 117.147 222.954 114.485 219.614 111.041C216.378 107.493 213.769 103.213 211.786 98.2037C209.803 93.0897 208.812 87.3494 208.812 80.9829C208.812 74.7208 209.803 69.0848 211.786 64.0751C213.769 58.9611 216.378 54.6819 219.614 51.2378C222.954 47.6892 226.763 44.9756 231.042 43.097C235.321 41.2184 239.757 40.279 244.349 40.279C249.046 40.279 253.064 41.114 256.404 42.7839C259.848 44.4538 262.666 46.8021 264.858 49.8288V5.83734H291.159V120.121H265.014V111.198C262.718 114.537 259.796 117.147 256.247 119.025C252.699 120.8 248.576 121.687 243.88 121.687ZM250.768 97.1079C255.256 97.1079 258.909 95.5423 261.727 92.4113C264.649 89.2802 266.11 85.4186 266.11 80.8263C266.11 76.2341 264.649 72.3724 261.727 69.2414C258.909 66.1103 255.256 64.5448 250.768 64.5448C246.28 64.5448 242.523 66.1103 239.496 69.2414C236.574 72.2681 235.113 76.1297 235.113 80.8263C235.113 85.5229 236.574 89.4367 239.496 92.5678C242.523 95.5945 246.28 97.1079 250.768 97.1079Z" fill="white"/>
<path d="M301.697 5.83734H327.998V50.6116C330.398 47.3761 333.321 44.8713 336.765 43.097C340.209 41.2184 344.071 40.279 348.35 40.279C356.804 40.279 363.535 42.8883 368.545 48.1067C373.555 53.3251 376.06 60.6831 376.06 70.1807V120.121H348.976V75.9732C348.976 71.9028 348.141 68.7717 346.471 66.58C344.801 64.3882 342.244 63.2924 338.8 63.2924C335.773 63.2924 333.268 64.4404 331.285 66.7365C329.302 68.9283 328.311 72.3724 328.311 77.069V120.121H301.697V5.83734Z" fill="white"/>
<path d="M418.692 121.687C414.205 121.687 409.873 120.8 405.699 119.025C401.524 117.147 397.766 114.485 394.427 111.041C391.191 107.493 388.582 103.213 386.599 98.2037C384.616 93.0897 383.625 87.3494 383.625 80.9829C383.625 74.7208 384.616 69.0848 386.599 64.0751C388.582 58.9611 391.191 54.6819 394.427 51.2378C397.766 47.6892 401.576 44.9756 405.855 43.097C410.134 41.2184 414.57 40.279 419.162 40.279C424.067 40.279 428.19 41.2184 431.53 43.097C434.974 44.8713 437.792 47.3761 439.984 50.6116V41.8446H466.598V120.121H439.984V110.885C437.688 114.329 434.765 116.99 431.217 118.869C427.668 120.747 423.493 121.687 418.692 121.687ZM425.581 97.1079C430.069 97.1079 433.722 95.5423 436.539 92.4113C439.462 89.2802 440.923 85.4186 440.923 80.8263C440.923 76.2341 439.462 72.3724 436.539 69.2414C433.722 66.1103 430.069 64.5448 425.581 64.5448C421.093 64.5448 417.336 66.1103 414.309 69.2414C411.387 72.2681 409.925 76.1297 409.925 80.8263C409.925 85.5229 411.387 89.4367 414.309 92.5678C417.336 95.5945 421.093 97.1079 425.581 97.1079Z" fill="white"/>
<path d="M503.956 5.83734V120.121H477.968V5.83734H503.956Z" fill="white"/>
<path d="M548.5 121.687C544.012 121.687 539.681 120.8 535.506 119.025C531.331 117.147 527.574 114.485 524.234 111.041C520.999 107.493 518.389 103.213 516.406 98.2037C514.423 93.0897 513.432 87.3494 513.432 80.9829C513.432 74.7208 514.423 69.0848 516.406 64.0751C518.389 58.9611 520.999 54.6819 524.234 51.2378C527.574 47.6892 531.383 44.9756 535.662 43.097C539.941 41.2184 544.377 40.279 548.969 40.279C553.875 40.279 557.997 41.2184 561.337 43.097C564.781 44.8713 567.599 47.3761 569.791 50.6116V41.8446H596.405V120.121H569.791V110.885C567.495 114.329 564.572 116.99 561.024 118.869C557.475 120.747 553.301 121.687 548.5 121.687ZM555.388 97.1079C559.876 97.1079 563.529 95.5423 566.347 92.4113C569.269 89.2802 570.73 85.4186 570.73 80.8263C570.73 76.2341 569.269 72.3724 566.347 69.2414C563.529 66.1103 559.876 64.5448 555.388 64.5448C550.9 64.5448 547.143 66.1103 544.116 69.2414C541.194 72.2681 539.733 76.1297 539.733 80.8263C539.733 85.5229 541.194 89.4367 544.116 92.5678C547.143 95.5945 550.9 97.1079 555.388 97.1079Z" fill="white"/>
<path fill-rule="evenodd" clip-rule="evenodd" d="M74.4445 0H21.231V119.879H82.7045C86.4109 119.879 90.1968 119.191 94.062 117.815C108.888 111.45 116.301 100.861 116.301 84.9781V82.9139C116.301 68.8655 110.714 59.3471 99.5422 54.3585V54.0144C107.485 48.6818 111.456 40.8835 111.456 30.6196C111.456 23.1081 109.55 16.8007 105.737 11.6974C99.9129 3.89913 89.4819 0 74.4445 0Z" fill="white"/>
<rect y="24.4371" width="88.1209" height="21.8204" rx="10.9102" fill="#FF650F"/>
<rect x="44.8596" y="70.5958" width="87.2122" height="22.6597" rx="11.3298" fill="#00D1FF"/>
</svg>
