<svg width="16" height="17" viewBox="0 0 16 17" fill="none" xmlns="http://www.w3.org/2000/svg">
<path d="M12.7034 1.71737H11.7434V1.08784C11.7434 0.730566 11.4715 0.42511 11.1196 0.42511C10.7678 0.42511 10.4959 0.713974 10.4959 1.08784V1.7167L5.50342 1.71737V1.08784C5.50342 0.730567 5.23155 0.425111 4.87968 0.425111C4.52781 0.425111 4.25594 0.713975 4.25594 1.08784V1.7167H3.29594C1.72781 1.7167 0.464096 3.05943 0.464096 4.72553V13.5655C0.464096 15.2317 1.7441 16.5744 3.29594 16.5744H12.7041C14.2722 16.5744 15.5359 15.2316 15.5359 13.5655V4.72553C15.5359 3.06006 14.2559 1.71738 12.7035 1.71738L12.7034 1.71737ZM3.29587 3.02623H4.25587V3.65509C4.25587 4.01237 4.52774 4.31782 4.87962 4.31782C5.23149 4.31782 5.50336 4.02896 5.50336 3.65509V3.02623H10.4952V3.65509C10.4952 4.01237 10.7671 4.31782 11.1189 4.31782C11.4708 4.31782 11.7427 4.02896 11.7427 3.65509V3.02623H12.7027C13.5827 3.02623 14.2864 3.79123 14.2864 4.72623V5.5935L1.71139 5.59284V4.72557C1.71139 3.79123 2.41576 3.02623 3.29576 3.02623L3.29587 3.02623ZM12.7034 15.2489H3.29587C2.41587 15.2489 1.69587 14.4839 1.69587 13.5489V6.90223H14.2877V13.5496C14.2877 14.5012 13.5833 15.2489 12.7033 15.2489L12.7034 15.2489Z" fill="black"/>
<path d="M4.76799 8.44885H4.07986C3.5836 8.44885 3.19986 8.87385 3.19986 9.38385C3.19986 9.91112 3.59986 10.3189 4.07986 10.3189H4.76799C5.26424 10.3189 5.64799 9.89385 5.64799 9.38385C5.66361 8.87385 5.26362 8.44885 4.76799 8.44885Z" fill="black"/>
<path d="M8.35141 8.44885H7.66328C7.16702 8.44885 6.78328 8.87385 6.78328 9.38385C6.78328 9.91112 7.18328 10.3189 7.66328 10.3189H8.35141C8.84766 10.3189 9.23141 9.89385 9.23141 9.38385C9.23141 8.87385 8.83141 8.44885 8.35141 8.44885Z" fill="black"/>
<path d="M11.9196 8.44885H11.2315C10.7352 8.44885 10.3515 8.87385 10.3515 9.38385C10.3515 9.91112 10.7515 10.3189 11.2315 10.3189H11.9196C12.4159 10.3189 12.7996 9.89385 12.7996 9.38385C12.8159 8.87385 12.4159 8.44885 11.9196 8.44885Z" fill="black"/>
<path d="M4.76799 11.7977H4.07986C3.5836 11.7977 3.19986 12.2227 3.19986 12.7327C3.19986 13.2599 3.59986 13.6677 4.07986 13.6677H4.76799C5.26424 13.6677 5.64799 13.2427 5.64799 12.7327C5.66361 12.2227 5.26362 11.7977 4.76799 11.7977Z" fill="black"/>
<path d="M8.35141 11.7977H7.66328C7.16702 11.7977 6.78328 12.2227 6.78328 12.7327C6.78328 13.2599 7.18328 13.6677 7.66328 13.6677H8.35141C8.84766 13.6677 9.23141 13.2427 9.23141 12.7327C9.23141 12.2227 8.83141 11.7977 8.35141 11.7977Z" fill="black"/>
<path d="M11.9196 11.7977H11.2315C10.7352 11.7977 10.3515 12.2227 10.3515 12.7327C10.3515 13.2599 10.7515 13.6677 11.2315 13.6677H11.9196C12.4159 13.6677 12.7996 13.2427 12.7996 12.7327C12.8159 12.2227 12.4159 11.7977 11.9196 11.7977Z" fill="black"/>
</svg>
