<svg width="25" height="26" viewBox="0 0 25 26" fill="none" xmlns="http://www.w3.org/2000/svg">
<mask id="path-1-outside-1" maskUnits="userSpaceOnUse" x="0.499825" y="4.71906" width="24" height="17" fill="black">
<rect fill="white" x="0.499825" y="4.71906" width="24" height="17"/>
<path d="M23.5008 9.61196C23.4998 9.26462 23.4022 8.91219 23.1844 8.62172L21.4412 6.30203C21.1492 5.91608 20.7049 5.72007 20.2605 5.71906C19.9959 5.71906 19.7273 5.78913 19.4891 5.94351L17.7889 7.04344C17.6102 7.16227 17.3035 7.24352 17.0076 7.24149C16.7771 7.2425 16.5555 7.19477 16.409 7.11961L14.7449 6.28069C14.4764 6.14663 14.1776 6.09077 13.8758 6.09077C13.4432 6.0928 13.0057 6.20351 12.6541 6.45638L12.4598 6.59857C12.3045 6.51834 12.0672 6.39545 11.7987 6.25631C11.4764 6.09178 11.0975 6.02576 10.7147 6.02475C10.369 6.02576 10.0233 6.08162 9.71955 6.21467L8.58576 6.71741C8.40119 6.80069 8.10821 6.85451 7.81623 6.8535C7.52521 6.85452 7.23128 6.80069 7.04768 6.71741L5.91291 6.21366C5.70588 6.12225 5.48421 6.08264 5.26546 6.08264C5.01253 6.08264 4.76156 6.13444 4.52913 6.23295C4.29573 6.33147 4.07991 6.47772 3.90803 6.67778L1.84163 9.0838C1.61312 9.34988 1.49886 9.68403 1.49983 10.0141C1.49885 10.4071 1.66096 10.8012 1.97346 11.0785L3.90118 12.7888L2.98613 13.78C2.73418 14.0533 2.60821 14.4077 2.60821 14.7591C2.60723 15.1318 2.74981 15.5086 3.03203 15.7859L3.21758 15.9687C3.39238 16.1414 3.60235 16.251 3.82208 16.3089C3.71173 16.5202 3.65118 16.7507 3.65216 16.9823C3.65118 17.356 3.79376 17.7318 4.07598 18.0101H4.075L4.26055 18.1939C4.5252 18.4549 4.86895 18.5849 5.20685 18.5849C5.38849 18.5849 5.57013 18.5474 5.742 18.4732C5.80157 18.7261 5.9256 18.9668 6.1209 19.1598L6.30645 19.3436C6.5711 19.6046 6.91387 19.7346 7.25275 19.7346C7.5174 19.7346 7.78302 19.6534 8.01252 19.4959C8.07991 19.7204 8.19416 19.9327 8.36897 20.1053L8.55452 20.2892C8.81917 20.5502 9.16195 20.6802 9.49982 20.6802C9.86017 20.6802 10.2234 20.5329 10.493 20.2414L11.3006 19.3639L12.3983 20.4202C12.661 20.6741 12.9979 20.8 13.3309 20.799C13.6971 20.8 14.0653 20.6477 14.3348 20.3481L14.5096 20.1531C14.661 19.9845 14.7596 19.7844 14.8172 19.5752L15.242 19.9834C15.5057 20.2363 15.8416 20.3612 16.1746 20.3612C16.5408 20.3612 16.911 20.2089 17.1805 19.9093L17.3543 19.7143C17.5555 19.4908 17.6688 19.2136 17.7039 18.9312C17.8162 18.9607 17.9295 18.981 18.0448 18.981C18.411 18.981 18.7801 18.8287 19.0496 18.529L19.2244 18.334C19.4686 18.0618 19.5906 17.7125 19.5897 17.3682C19.5897 17.2616 19.575 17.1549 19.5525 17.0503C19.8562 17.0087 20.1512 16.8675 20.3748 16.6176L20.5496 16.4226C20.7938 16.1504 20.9149 15.8011 20.9149 15.4568C20.9158 15.078 20.7684 14.6951 20.4783 14.4168L20.1502 14.1019L23.1082 10.7006C23.3777 10.3939 23.5008 9.99985 23.5008 9.61187L23.5008 9.61196ZM3.54854 15.2264C3.41964 15.1005 3.35616 14.9319 3.35616 14.7592C3.35713 14.5977 3.4128 14.4393 3.52706 14.3144L5.39913 12.2821C5.5212 12.1501 5.68428 12.083 5.85128 12.083C6.00753 12.083 6.15988 12.142 6.28098 12.2598L6.46555 12.4436C6.46555 12.4436 6.65696 12.7381 6.65793 12.9108C6.65696 13.0398 6.61985 13.1667 6.54758 13.2754C6.54172 13.2815 4.52611 15.4661 4.52611 15.4661C4.41868 15.5453 4.29271 15.5859 4.16381 15.5859C4.00658 15.5849 3.85423 15.527 3.73411 15.4092L3.54854 15.2264ZM5.20869 17.8122C5.05146 17.8122 4.89912 17.7533 4.77899 17.6355L4.59344 17.4516H4.59247C4.46454 17.3257 4.40106 17.1571 4.40106 16.9844C4.40106 16.823 4.4577 16.6645 4.57196 16.5396C4.57196 16.5396 7.06806 13.8369 7.08846 13.8117C7.2076 13.6918 7.36191 13.6309 7.52011 13.6309C7.67734 13.6309 7.82968 13.6898 7.94981 13.8076L8.13536 13.9914C8.26329 14.1174 8.32676 14.286 8.32774 14.4586C8.32676 14.6201 8.2711 14.7786 8.15684 14.9035L5.65977 17.6142C5.5377 17.7453 5.37559 17.8113 5.20859 17.8123L5.20869 17.8122ZM7.25459 18.9609C7.09736 18.9609 6.94502 18.902 6.82489 18.7841L6.63837 18.6003C6.51044 18.4744 6.44599 18.3058 6.44599 18.1331C6.44599 17.9889 6.49286 17.8487 6.58368 17.7319L8.32195 15.8449C8.43914 15.7352 8.58661 15.6773 8.73798 15.6773C8.89521 15.6773 9.04755 15.7362 9.16768 15.854L9.3542 16.0379C9.48213 16.1638 9.54561 16.3324 9.54658 16.5051C9.54561 16.6676 9.48897 16.826 9.37569 16.9499L7.70479 18.7628C7.58467 18.8948 7.42159 18.9609 7.25459 18.9609L7.25459 18.9609ZM9.95384 19.7084C9.83274 19.8404 9.66967 19.9064 9.50266 19.9074C9.34544 19.9074 9.19309 19.8485 9.07297 19.7307L8.88742 19.5469C8.75949 19.4209 8.69601 19.2523 8.69503 19.0797C8.69601 18.9172 8.75168 18.7587 8.86593 18.6348L9.92063 17.4902C10.0427 17.3582 10.2058 17.2922 10.3728 17.2912C10.529 17.2912 10.6824 17.3501 10.8025 17.4679L10.989 17.6517C11.1169 17.7777 11.1804 17.9463 11.1804 18.1189C11.1794 18.2814 11.1238 18.4399 11.0095 18.5638L9.95384 19.7084ZM20.0056 15.8957L19.8308 16.0907C19.7087 16.2268 19.5437 16.2949 19.3738 16.2949C19.2204 16.2949 19.0691 16.238 18.9499 16.1232L16.0047 13.2916L15.4959 13.8583L18.6481 16.8951C18.779 17.021 18.8454 17.1926 18.8464 17.3684C18.8454 17.5278 18.7907 17.6832 18.6804 17.8071L18.5065 18.0021C18.3845 18.1382 18.2194 18.2062 18.0495 18.2062C17.8962 18.2052 17.7448 18.1494 17.6267 18.0356L14.6804 15.204L14.1716 15.7707L16.7859 18.2854C16.9118 18.4113 16.9763 18.5779 16.9763 18.7495C16.9763 18.909 16.9216 19.0644 16.8112 19.1883L16.6364 19.3833C16.5154 19.5194 16.3493 19.5874 16.1794 19.5884C16.0251 19.5874 15.8747 19.5316 15.7556 19.4178L13.1461 16.9123H13.1451L13.1441 16.9113L12.6363 17.479L12.6373 17.48L12.6471 17.4891L13.9537 18.7434C14.0699 18.8673 14.1295 19.0258 14.1295 19.1903C14.1285 19.3488 14.0748 19.5031 13.9645 19.627L13.7897 19.822C13.6676 19.9581 13.5026 20.0262 13.3336 20.0262C13.1803 20.0252 13.0289 19.9693 12.9108 19.8545L11.7731 18.7587C11.8717 18.5566 11.9274 18.3372 11.9274 18.1179C11.9283 17.7451 11.7858 17.3683 11.5035 17.0911L11.317 16.9072C11.0524 16.6462 10.7096 16.5162 10.3717 16.5162C10.3454 16.5162 10.319 16.5223 10.2936 16.5243C10.2936 16.5182 10.2955 16.5111 10.2955 16.505C10.2965 16.1323 9.87172 15.4772 9.87172 15.4772L9.68617 15.2934C9.48891 15.0984 9.24672 14.9765 8.99575 14.9278C9.04751 14.7755 9.07681 14.617 9.07681 14.4576C9.07681 14.0848 8.9352 13.708 8.65298 13.4308L8.46743 13.2469C8.20278 12.9859 7.86001 12.8559 7.52213 12.8559C7.48307 12.8559 7.44401 12.8641 7.40397 12.8681C7.39323 12.5096 7.25455 12.1521 6.98404 11.885L6.79849 11.7022C6.53384 11.4412 6.19107 11.3102 5.85319 11.3112C5.49285 11.3112 5.12957 11.4584 4.86002 11.7499L4.41765 12.2293L2.45965 10.4926C2.31902 10.3677 2.24871 10.194 2.24773 10.0163C2.24871 9.86698 2.29656 9.72175 2.40105 9.59986L4.46745 7.19384C4.54948 7.09837 4.67058 7.01205 4.81315 6.95111C4.95475 6.89119 5.11685 6.85767 5.26725 6.85869C5.39811 6.85869 5.52213 6.88306 5.6198 6.92775L6.7536 7.4315C7.07293 7.57166 7.445 7.62955 7.81805 7.63056C8.1911 7.62955 8.5622 7.57166 8.8825 7.4315L10.0163 6.92876C10.1911 6.84954 10.4548 6.80079 10.7175 6.80181C11.0075 6.79978 11.2975 6.86275 11.4665 6.95212C11.5739 7.00798 11.6755 7.05978 11.7692 7.10954L10.613 7.95454C10.2419 8.22674 10.0417 8.65836 10.0417 9.09407C10.0407 9.38252 10.1296 9.67603 10.3083 9.92586L10.3073 9.92485L10.4596 10.1381C10.7497 10.5393 11.2018 10.7455 11.654 10.7465C11.9088 10.7465 12.1696 10.6794 12.401 10.5352L13.0924 10.1036C13.2331 10.0142 13.446 9.95732 13.6667 9.95834C13.9255 9.95631 14.1862 10.0365 14.3424 10.1564L16.2555 11.5823C16.6813 11.8992 17.3747 12.4883 17.7594 12.8579L19.9733 14.9867C20.1042 15.1136 20.1706 15.2843 20.1706 15.46C20.1715 15.6164 20.1168 15.7718 20.0055 15.8957L20.0056 15.8957ZM22.5573 10.1827L19.6071 13.575L18.2682 12.2872C17.8483 11.8839 17.1569 11.2969 16.693 10.9506L14.7809 9.52465C14.4567 9.28598 14.0592 9.18239 13.6676 9.18137C13.3337 9.18239 12.9967 9.25856 12.7067 9.43832L12.0153 9.86998C11.9088 9.93599 11.7838 9.97052 11.6549 9.97052C11.4225 9.97154 11.1911 9.8588 11.0612 9.67498L10.9088 9.4617L10.9079 9.46069C10.8268 9.34694 10.7887 9.21998 10.7887 9.09099C10.7897 8.89599 10.8766 8.70707 11.0436 8.5842L13.0885 7.09021C13.2653 6.95717 13.5797 6.86373 13.8786 6.86576C14.0856 6.86474 14.2839 6.90842 14.4196 6.97748L16.0837 7.8164C16.3678 7.95858 16.6872 8.01647 17.0094 8.01647C17.4235 8.01444 17.8415 7.921 18.1872 7.70063L19.8874 6.6007C19.9958 6.53062 20.1256 6.49405 20.2614 6.49405C20.4909 6.49304 20.7213 6.60171 20.8512 6.77844L22.5944 9.09814C22.695 9.23118 22.7536 9.41807 22.7536 9.61307C22.7536 9.82939 22.6803 10.0427 22.5573 10.1828L22.5573 10.1827Z"/>
</mask>
<path d="M23.5008 9.61196C23.4998 9.26462 23.4022 8.91219 23.1844 8.62172L21.4412 6.30203C21.1492 5.91608 20.7049 5.72007 20.2605 5.71906C19.9959 5.71906 19.7273 5.78913 19.4891 5.94351L17.7889 7.04344C17.6102 7.16227 17.3035 7.24352 17.0076 7.24149C16.7771 7.2425 16.5555 7.19477 16.409 7.11961L14.7449 6.28069C14.4764 6.14663 14.1776 6.09077 13.8758 6.09077C13.4432 6.0928 13.0057 6.20351 12.6541 6.45638L12.4598 6.59857C12.3045 6.51834 12.0672 6.39545 11.7987 6.25631C11.4764 6.09178 11.0975 6.02576 10.7147 6.02475C10.369 6.02576 10.0233 6.08162 9.71955 6.21467L8.58576 6.71741C8.40119 6.80069 8.10821 6.85451 7.81623 6.8535C7.52521 6.85452 7.23128 6.80069 7.04768 6.71741L5.91291 6.21366C5.70588 6.12225 5.48421 6.08264 5.26546 6.08264C5.01253 6.08264 4.76156 6.13444 4.52913 6.23295C4.29573 6.33147 4.07991 6.47772 3.90803 6.67778L1.84163 9.0838C1.61312 9.34988 1.49886 9.68403 1.49983 10.0141C1.49885 10.4071 1.66096 10.8012 1.97346 11.0785L3.90118 12.7888L2.98613 13.78C2.73418 14.0533 2.60821 14.4077 2.60821 14.7591C2.60723 15.1318 2.74981 15.5086 3.03203 15.7859L3.21758 15.9687C3.39238 16.1414 3.60235 16.251 3.82208 16.3089C3.71173 16.5202 3.65118 16.7507 3.65216 16.9823C3.65118 17.356 3.79376 17.7318 4.07598 18.0101H4.075L4.26055 18.1939C4.5252 18.4549 4.86895 18.5849 5.20685 18.5849C5.38849 18.5849 5.57013 18.5474 5.742 18.4732C5.80157 18.7261 5.9256 18.9668 6.1209 19.1598L6.30645 19.3436C6.5711 19.6046 6.91387 19.7346 7.25275 19.7346C7.5174 19.7346 7.78302 19.6534 8.01252 19.4959C8.07991 19.7204 8.19416 19.9327 8.36897 20.1053L8.55452 20.2892C8.81917 20.5502 9.16195 20.6802 9.49982 20.6802C9.86017 20.6802 10.2234 20.5329 10.493 20.2414L11.3006 19.3639L12.3983 20.4202C12.661 20.6741 12.9979 20.8 13.3309 20.799C13.6971 20.8 14.0653 20.6477 14.3348 20.3481L14.5096 20.1531C14.661 19.9845 14.7596 19.7844 14.8172 19.5752L15.242 19.9834C15.5057 20.2363 15.8416 20.3612 16.1746 20.3612C16.5408 20.3612 16.911 20.2089 17.1805 19.9093L17.3543 19.7143C17.5555 19.4908 17.6688 19.2136 17.7039 18.9312C17.8162 18.9607 17.9295 18.981 18.0448 18.981C18.411 18.981 18.7801 18.8287 19.0496 18.529L19.2244 18.334C19.4686 18.0618 19.5906 17.7125 19.5897 17.3682C19.5897 17.2616 19.575 17.1549 19.5525 17.0503C19.8562 17.0087 20.1512 16.8675 20.3748 16.6176L20.5496 16.4226C20.7938 16.1504 20.9149 15.8011 20.9149 15.4568C20.9158 15.078 20.7684 14.6951 20.4783 14.4168L20.1502 14.1019L23.1082 10.7006C23.3777 10.3939 23.5008 9.99985 23.5008 9.61187L23.5008 9.61196ZM3.54854 15.2264C3.41964 15.1005 3.35616 14.9319 3.35616 14.7592C3.35713 14.5977 3.4128 14.4393 3.52706 14.3144L5.39913 12.2821C5.5212 12.1501 5.68428 12.083 5.85128 12.083C6.00753 12.083 6.15988 12.142 6.28098 12.2598L6.46555 12.4436C6.46555 12.4436 6.65696 12.7381 6.65793 12.9108C6.65696 13.0398 6.61985 13.1667 6.54758 13.2754C6.54172 13.2815 4.52611 15.4661 4.52611 15.4661C4.41868 15.5453 4.29271 15.5859 4.16381 15.5859C4.00658 15.5849 3.85423 15.527 3.73411 15.4092L3.54854 15.2264ZM5.20869 17.8122C5.05146 17.8122 4.89912 17.7533 4.77899 17.6355L4.59344 17.4516H4.59247C4.46454 17.3257 4.40106 17.1571 4.40106 16.9844C4.40106 16.823 4.4577 16.6645 4.57196 16.5396C4.57196 16.5396 7.06806 13.8369 7.08846 13.8117C7.2076 13.6918 7.36191 13.6309 7.52011 13.6309C7.67734 13.6309 7.82968 13.6898 7.94981 13.8076L8.13536 13.9914C8.26329 14.1174 8.32676 14.286 8.32774 14.4586C8.32676 14.6201 8.2711 14.7786 8.15684 14.9035L5.65977 17.6142C5.5377 17.7453 5.37559 17.8113 5.20859 17.8123L5.20869 17.8122ZM7.25459 18.9609C7.09736 18.9609 6.94502 18.902 6.82489 18.7841L6.63837 18.6003C6.51044 18.4744 6.44599 18.3058 6.44599 18.1331C6.44599 17.9889 6.49286 17.8487 6.58368 17.7319L8.32195 15.8449C8.43914 15.7352 8.58661 15.6773 8.73798 15.6773C8.89521 15.6773 9.04755 15.7362 9.16768 15.854L9.3542 16.0379C9.48213 16.1638 9.54561 16.3324 9.54658 16.5051C9.54561 16.6676 9.48897 16.826 9.37569 16.9499L7.70479 18.7628C7.58467 18.8948 7.42159 18.9609 7.25459 18.9609L7.25459 18.9609ZM9.95384 19.7084C9.83274 19.8404 9.66967 19.9064 9.50266 19.9074C9.34544 19.9074 9.19309 19.8485 9.07297 19.7307L8.88742 19.5469C8.75949 19.4209 8.69601 19.2523 8.69503 19.0797C8.69601 18.9172 8.75168 18.7587 8.86593 18.6348L9.92063 17.4902C10.0427 17.3582 10.2058 17.2922 10.3728 17.2912C10.529 17.2912 10.6824 17.3501 10.8025 17.4679L10.989 17.6517C11.1169 17.7777 11.1804 17.9463 11.1804 18.1189C11.1794 18.2814 11.1238 18.4399 11.0095 18.5638L9.95384 19.7084ZM20.0056 15.8957L19.8308 16.0907C19.7087 16.2268 19.5437 16.2949 19.3738 16.2949C19.2204 16.2949 19.0691 16.238 18.9499 16.1232L16.0047 13.2916L15.4959 13.8583L18.6481 16.8951C18.779 17.021 18.8454 17.1926 18.8464 17.3684C18.8454 17.5278 18.7907 17.6832 18.6804 17.8071L18.5065 18.0021C18.3845 18.1382 18.2194 18.2062 18.0495 18.2062C17.8962 18.2052 17.7448 18.1494 17.6267 18.0356L14.6804 15.204L14.1716 15.7707L16.7859 18.2854C16.9118 18.4113 16.9763 18.5779 16.9763 18.7495C16.9763 18.909 16.9216 19.0644 16.8112 19.1883L16.6364 19.3833C16.5154 19.5194 16.3493 19.5874 16.1794 19.5884C16.0251 19.5874 15.8747 19.5316 15.7556 19.4178L13.1461 16.9123H13.1451L13.1441 16.9113L12.6363 17.479L12.6373 17.48L12.6471 17.4891L13.9537 18.7434C14.0699 18.8673 14.1295 19.0258 14.1295 19.1903C14.1285 19.3488 14.0748 19.5031 13.9645 19.627L13.7897 19.822C13.6676 19.9581 13.5026 20.0262 13.3336 20.0262C13.1803 20.0252 13.0289 19.9693 12.9108 19.8545L11.7731 18.7587C11.8717 18.5566 11.9274 18.3372 11.9274 18.1179C11.9283 17.7451 11.7858 17.3683 11.5035 17.0911L11.317 16.9072C11.0524 16.6462 10.7096 16.5162 10.3717 16.5162C10.3454 16.5162 10.319 16.5223 10.2936 16.5243C10.2936 16.5182 10.2955 16.5111 10.2955 16.505C10.2965 16.1323 9.87172 15.4772 9.87172 15.4772L9.68617 15.2934C9.48891 15.0984 9.24672 14.9765 8.99575 14.9278C9.04751 14.7755 9.07681 14.617 9.07681 14.4576C9.07681 14.0848 8.9352 13.708 8.65298 13.4308L8.46743 13.2469C8.20278 12.9859 7.86001 12.8559 7.52213 12.8559C7.48307 12.8559 7.44401 12.8641 7.40397 12.8681C7.39323 12.5096 7.25455 12.1521 6.98404 11.885L6.79849 11.7022C6.53384 11.4412 6.19107 11.3102 5.85319 11.3112C5.49285 11.3112 5.12957 11.4584 4.86002 11.7499L4.41765 12.2293L2.45965 10.4926C2.31902 10.3677 2.24871 10.194 2.24773 10.0163C2.24871 9.86698 2.29656 9.72175 2.40105 9.59986L4.46745 7.19384C4.54948 7.09837 4.67058 7.01205 4.81315 6.95111C4.95475 6.89119 5.11685 6.85767 5.26725 6.85869C5.39811 6.85869 5.52213 6.88306 5.6198 6.92775L6.7536 7.4315C7.07293 7.57166 7.445 7.62955 7.81805 7.63056C8.1911 7.62955 8.5622 7.57166 8.8825 7.4315L10.0163 6.92876C10.1911 6.84954 10.4548 6.80079 10.7175 6.80181C11.0075 6.79978 11.2975 6.86275 11.4665 6.95212C11.5739 7.00798 11.6755 7.05978 11.7692 7.10954L10.613 7.95454C10.2419 8.22674 10.0417 8.65836 10.0417 9.09407C10.0407 9.38252 10.1296 9.67603 10.3083 9.92586L10.3073 9.92485L10.4596 10.1381C10.7497 10.5393 11.2018 10.7455 11.654 10.7465C11.9088 10.7465 12.1696 10.6794 12.401 10.5352L13.0924 10.1036C13.2331 10.0142 13.446 9.95732 13.6667 9.95834C13.9255 9.95631 14.1862 10.0365 14.3424 10.1564L16.2555 11.5823C16.6813 11.8992 17.3747 12.4883 17.7594 12.8579L19.9733 14.9867C20.1042 15.1136 20.1706 15.2843 20.1706 15.46C20.1715 15.6164 20.1168 15.7718 20.0055 15.8957L20.0056 15.8957ZM22.5573 10.1827L19.6071 13.575L18.2682 12.2872C17.8483 11.8839 17.1569 11.2969 16.693 10.9506L14.7809 9.52465C14.4567 9.28598 14.0592 9.18239 13.6676 9.18137C13.3337 9.18239 12.9967 9.25856 12.7067 9.43832L12.0153 9.86998C11.9088 9.93599 11.7838 9.97052 11.6549 9.97052C11.4225 9.97154 11.1911 9.8588 11.0612 9.67498L10.9088 9.4617L10.9079 9.46069C10.8268 9.34694 10.7887 9.21998 10.7887 9.09099C10.7897 8.89599 10.8766 8.70707 11.0436 8.5842L13.0885 7.09021C13.2653 6.95717 13.5797 6.86373 13.8786 6.86576C14.0856 6.86474 14.2839 6.90842 14.4196 6.97748L16.0837 7.8164C16.3678 7.95858 16.6872 8.01647 17.0094 8.01647C17.4235 8.01444 17.8415 7.921 18.1872 7.70063L19.8874 6.6007C19.9958 6.53062 20.1256 6.49405 20.2614 6.49405C20.4909 6.49304 20.7213 6.60171 20.8512 6.77844L22.5944 9.09814C22.695 9.23118 22.7536 9.41807 22.7536 9.61307C22.7536 9.82939 22.6803 10.0427 22.5573 10.1828L22.5573 10.1827Z" fill="black"/>
<path d="M23.5008 9.61196C23.4998 9.26462 23.4022 8.91219 23.1844 8.62172L21.4412 6.30203C21.1492 5.91608 20.7049 5.72007 20.2605 5.71906C19.9959 5.71906 19.7273 5.78913 19.4891 5.94351L17.7889 7.04344C17.6102 7.16227 17.3035 7.24352 17.0076 7.24149C16.7771 7.2425 16.5555 7.19477 16.409 7.11961L14.7449 6.28069C14.4764 6.14663 14.1776 6.09077 13.8758 6.09077C13.4432 6.0928 13.0057 6.20351 12.6541 6.45638L12.4598 6.59857C12.3045 6.51834 12.0672 6.39545 11.7987 6.25631C11.4764 6.09178 11.0975 6.02576 10.7147 6.02475C10.369 6.02576 10.0233 6.08162 9.71955 6.21467L8.58576 6.71741C8.40119 6.80069 8.10821 6.85451 7.81623 6.8535C7.52521 6.85452 7.23128 6.80069 7.04768 6.71741L5.91291 6.21366C5.70588 6.12225 5.48421 6.08264 5.26546 6.08264C5.01253 6.08264 4.76156 6.13444 4.52913 6.23295C4.29573 6.33147 4.07991 6.47772 3.90803 6.67778L1.84163 9.0838C1.61312 9.34988 1.49886 9.68403 1.49983 10.0141C1.49885 10.4071 1.66096 10.8012 1.97346 11.0785L3.90118 12.7888L2.98613 13.78C2.73418 14.0533 2.60821 14.4077 2.60821 14.7591C2.60723 15.1318 2.74981 15.5086 3.03203 15.7859L3.21758 15.9687C3.39238 16.1414 3.60235 16.251 3.82208 16.3089C3.71173 16.5202 3.65118 16.7507 3.65216 16.9823C3.65118 17.356 3.79376 17.7318 4.07598 18.0101H4.075L4.26055 18.1939C4.5252 18.4549 4.86895 18.5849 5.20685 18.5849C5.38849 18.5849 5.57013 18.5474 5.742 18.4732C5.80157 18.7261 5.9256 18.9668 6.1209 19.1598L6.30645 19.3436C6.5711 19.6046 6.91387 19.7346 7.25275 19.7346C7.5174 19.7346 7.78302 19.6534 8.01252 19.4959C8.07991 19.7204 8.19416 19.9327 8.36897 20.1053L8.55452 20.2892C8.81917 20.5502 9.16195 20.6802 9.49982 20.6802C9.86017 20.6802 10.2234 20.5329 10.493 20.2414L11.3006 19.3639L12.3983 20.4202C12.661 20.6741 12.9979 20.8 13.3309 20.799C13.6971 20.8 14.0653 20.6477 14.3348 20.3481L14.5096 20.1531C14.661 19.9845 14.7596 19.7844 14.8172 19.5752L15.242 19.9834C15.5057 20.2363 15.8416 20.3612 16.1746 20.3612C16.5408 20.3612 16.911 20.2089 17.1805 19.9093L17.3543 19.7143C17.5555 19.4908 17.6688 19.2136 17.7039 18.9312C17.8162 18.9607 17.9295 18.981 18.0448 18.981C18.411 18.981 18.7801 18.8287 19.0496 18.529L19.2244 18.334C19.4686 18.0618 19.5906 17.7125 19.5897 17.3682C19.5897 17.2616 19.575 17.1549 19.5525 17.0503C19.8562 17.0087 20.1512 16.8675 20.3748 16.6176L20.5496 16.4226C20.7938 16.1504 20.9149 15.8011 20.9149 15.4568C20.9158 15.078 20.7684 14.6951 20.4783 14.4168L20.1502 14.1019L23.1082 10.7006C23.3777 10.3939 23.5008 9.99985 23.5008 9.61187L23.5008 9.61196ZM3.54854 15.2264C3.41964 15.1005 3.35616 14.9319 3.35616 14.7592C3.35713 14.5977 3.4128 14.4393 3.52706 14.3144L5.39913 12.2821C5.5212 12.1501 5.68428 12.083 5.85128 12.083C6.00753 12.083 6.15988 12.142 6.28098 12.2598L6.46555 12.4436C6.46555 12.4436 6.65696 12.7381 6.65793 12.9108C6.65696 13.0398 6.61985 13.1667 6.54758 13.2754C6.54172 13.2815 4.52611 15.4661 4.52611 15.4661C4.41868 15.5453 4.29271 15.5859 4.16381 15.5859C4.00658 15.5849 3.85423 15.527 3.73411 15.4092L3.54854 15.2264ZM5.20869 17.8122C5.05146 17.8122 4.89912 17.7533 4.77899 17.6355L4.59344 17.4516H4.59247C4.46454 17.3257 4.40106 17.1571 4.40106 16.9844C4.40106 16.823 4.4577 16.6645 4.57196 16.5396C4.57196 16.5396 7.06806 13.8369 7.08846 13.8117C7.2076 13.6918 7.36191 13.6309 7.52011 13.6309C7.67734 13.6309 7.82968 13.6898 7.94981 13.8076L8.13536 13.9914C8.26329 14.1174 8.32676 14.286 8.32774 14.4586C8.32676 14.6201 8.2711 14.7786 8.15684 14.9035L5.65977 17.6142C5.5377 17.7453 5.37559 17.8113 5.20859 17.8123L5.20869 17.8122ZM7.25459 18.9609C7.09736 18.9609 6.94502 18.902 6.82489 18.7841L6.63837 18.6003C6.51044 18.4744 6.44599 18.3058 6.44599 18.1331C6.44599 17.9889 6.49286 17.8487 6.58368 17.7319L8.32195 15.8449C8.43914 15.7352 8.58661 15.6773 8.73798 15.6773C8.89521 15.6773 9.04755 15.7362 9.16768 15.854L9.3542 16.0379C9.48213 16.1638 9.54561 16.3324 9.54658 16.5051C9.54561 16.6676 9.48897 16.826 9.37569 16.9499L7.70479 18.7628C7.58467 18.8948 7.42159 18.9609 7.25459 18.9609L7.25459 18.9609ZM9.95384 19.7084C9.83274 19.8404 9.66967 19.9064 9.50266 19.9074C9.34544 19.9074 9.19309 19.8485 9.07297 19.7307L8.88742 19.5469C8.75949 19.4209 8.69601 19.2523 8.69503 19.0797C8.69601 18.9172 8.75168 18.7587 8.86593 18.6348L9.92063 17.4902C10.0427 17.3582 10.2058 17.2922 10.3728 17.2912C10.529 17.2912 10.6824 17.3501 10.8025 17.4679L10.989 17.6517C11.1169 17.7777 11.1804 17.9463 11.1804 18.1189C11.1794 18.2814 11.1238 18.4399 11.0095 18.5638L9.95384 19.7084ZM20.0056 15.8957L19.8308 16.0907C19.7087 16.2268 19.5437 16.2949 19.3738 16.2949C19.2204 16.2949 19.0691 16.238 18.9499 16.1232L16.0047 13.2916L15.4959 13.8583L18.6481 16.8951C18.779 17.021 18.8454 17.1926 18.8464 17.3684C18.8454 17.5278 18.7907 17.6832 18.6804 17.8071L18.5065 18.0021C18.3845 18.1382 18.2194 18.2062 18.0495 18.2062C17.8962 18.2052 17.7448 18.1494 17.6267 18.0356L14.6804 15.204L14.1716 15.7707L16.7859 18.2854C16.9118 18.4113 16.9763 18.5779 16.9763 18.7495C16.9763 18.909 16.9216 19.0644 16.8112 19.1883L16.6364 19.3833C16.5154 19.5194 16.3493 19.5874 16.1794 19.5884C16.0251 19.5874 15.8747 19.5316 15.7556 19.4178L13.1461 16.9123H13.1451L13.1441 16.9113L12.6363 17.479L12.6373 17.48L12.6471 17.4891L13.9537 18.7434C14.0699 18.8673 14.1295 19.0258 14.1295 19.1903C14.1285 19.3488 14.0748 19.5031 13.9645 19.627L13.7897 19.822C13.6676 19.9581 13.5026 20.0262 13.3336 20.0262C13.1803 20.0252 13.0289 19.9693 12.9108 19.8545L11.7731 18.7587C11.8717 18.5566 11.9274 18.3372 11.9274 18.1179C11.9283 17.7451 11.7858 17.3683 11.5035 17.0911L11.317 16.9072C11.0524 16.6462 10.7096 16.5162 10.3717 16.5162C10.3454 16.5162 10.319 16.5223 10.2936 16.5243C10.2936 16.5182 10.2955 16.5111 10.2955 16.505C10.2965 16.1323 9.87172 15.4772 9.87172 15.4772L9.68617 15.2934C9.48891 15.0984 9.24672 14.9765 8.99575 14.9278C9.04751 14.7755 9.07681 14.617 9.07681 14.4576C9.07681 14.0848 8.9352 13.708 8.65298 13.4308L8.46743 13.2469C8.20278 12.9859 7.86001 12.8559 7.52213 12.8559C7.48307 12.8559 7.44401 12.8641 7.40397 12.8681C7.39323 12.5096 7.25455 12.1521 6.98404 11.885L6.79849 11.7022C6.53384 11.4412 6.19107 11.3102 5.85319 11.3112C5.49285 11.3112 5.12957 11.4584 4.86002 11.7499L4.41765 12.2293L2.45965 10.4926C2.31902 10.3677 2.24871 10.194 2.24773 10.0163C2.24871 9.86698 2.29656 9.72175 2.40105 9.59986L4.46745 7.19384C4.54948 7.09837 4.67058 7.01205 4.81315 6.95111C4.95475 6.89119 5.11685 6.85767 5.26725 6.85869C5.39811 6.85869 5.52213 6.88306 5.6198 6.92775L6.7536 7.4315C7.07293 7.57166 7.445 7.62955 7.81805 7.63056C8.1911 7.62955 8.5622 7.57166 8.8825 7.4315L10.0163 6.92876C10.1911 6.84954 10.4548 6.80079 10.7175 6.80181C11.0075 6.79978 11.2975 6.86275 11.4665 6.95212C11.5739 7.00798 11.6755 7.05978 11.7692 7.10954L10.613 7.95454C10.2419 8.22674 10.0417 8.65836 10.0417 9.09407C10.0407 9.38252 10.1296 9.67603 10.3083 9.92586L10.3073 9.92485L10.4596 10.1381C10.7497 10.5393 11.2018 10.7455 11.654 10.7465C11.9088 10.7465 12.1696 10.6794 12.401 10.5352L13.0924 10.1036C13.2331 10.0142 13.446 9.95732 13.6667 9.95834C13.9255 9.95631 14.1862 10.0365 14.3424 10.1564L16.2555 11.5823C16.6813 11.8992 17.3747 12.4883 17.7594 12.8579L19.9733 14.9867C20.1042 15.1136 20.1706 15.2843 20.1706 15.46C20.1715 15.6164 20.1168 15.7718 20.0055 15.8957L20.0056 15.8957ZM22.5573 10.1827L19.6071 13.575L18.2682 12.2872C17.8483 11.8839 17.1569 11.2969 16.693 10.9506L14.7809 9.52465C14.4567 9.28598 14.0592 9.18239 13.6676 9.18137C13.3337 9.18239 12.9967 9.25856 12.7067 9.43832L12.0153 9.86998C11.9088 9.93599 11.7838 9.97052 11.6549 9.97052C11.4225 9.97154 11.1911 9.8588 11.0612 9.67498L10.9088 9.4617L10.9079 9.46069C10.8268 9.34694 10.7887 9.21998 10.7887 9.09099C10.7897 8.89599 10.8766 8.70707 11.0436 8.5842L13.0885 7.09021C13.2653 6.95717 13.5797 6.86373 13.8786 6.86576C14.0856 6.86474 14.2839 6.90842 14.4196 6.97748L16.0837 7.8164C16.3678 7.95858 16.6872 8.01647 17.0094 8.01647C17.4235 8.01444 17.8415 7.921 18.1872 7.70063L19.8874 6.6007C19.9958 6.53062 20.1256 6.49405 20.2614 6.49405C20.4909 6.49304 20.7213 6.60171 20.8512 6.77844L22.5944 9.09814C22.695 9.23118 22.7536 9.41807 22.7536 9.61307C22.7536 9.82939 22.6803 10.0427 22.5573 10.1828L22.5573 10.1827Z" stroke="black" stroke-width="0.6" mask="url(#path-1-outside-1)"/>
</svg>
