<svg width="15" height="16" viewBox="0 0 15 16" fill="none" xmlns="http://www.w3.org/2000/svg">
<g clip-path="url(#clip0)">
<path d="M14.5908 2.00253C14.9863 2.42441 14.9863 3.10753 14.5908 3.53129L13.665 4.51817C14.8023 6.50505 14.8023 9.72761 13.665 11.7145C11.8005 15.3908 7.49744 16.7601 4.05089 14.7713C0.604941 12.7825 -0.678759 8.19385 1.18394 4.51753L0.258741 3.53065C-0.136764 3.1069 -0.136764 2.42377 0.258741 2.00189L1.69136 0.473142C2.08687 0.0512703 2.72906 0.0512703 3.12574 0.473142L4.05094 1.46002C5.91364 0.245014 8.93479 0.245014 10.7975 1.46002L11.7244 0.473142C12.1199 0.0512703 12.7616 0.0512703 13.1576 0.473142L14.5908 2.00253ZM13.5056 8.1163C13.5056 4.53373 10.7834 1.63133 7.42477 1.63133C4.06612 1.63133 1.34392 4.5339 1.34392 8.1163C1.34392 11.6969 4.06612 14.6006 7.42477 14.6006C10.7828 14.6006 13.5056 11.6963 13.5056 8.1163Z" fill="black"/>
<path d="M11.4777 7.57629V8.65754H7.42591C7.147 8.65754 6.91966 8.41567 6.91966 8.11629V3.79309H7.93158V7.57629H11.4777Z" fill="black"/>
</g>
<defs>
<clipPath id="clip0">
<rect width="15" height="16" fill="white"/>
</clipPath>
</defs>
</svg>
